# xmcd CD database file
# Copyright (C) 1993-1998 Ti Kan
#
# Track frame offsets:
#	150
#	12794
#	26347
#	40109
#	53625
#	63279
#	73503
#	91657
#	105154
#	117828
#	132199
#	143414
#
# Disc length: 2059 seconds
#
# Revision: 1
# Processed by: cddbd v1.4b41PL1 Copyright (c) Steve Scherf et al.
# Submitted via: NotifyCDPlayer(CDDB) 1.51.3
#
DISCID=8508090c
DTITLE=Various Artist - Boy - Girl - Boy (Freddy King Lulu Reed Sonny Thompson)
DYEAR=1900
DGENRE=
TTITLE0=Do The President Twist
TTITLE1=I Got A Notion
TTITLE2=Know What You're Doing
TTITLE3=You Can't Hide
TTITLE4=What Makes You So Cold
TTITLE5=Puddentane
TTITLE6=(Let Your Love) Watch Over Me
TTITLE7=I'm A Woman (But I Don't Talk Too Much)
TTITLE8=Waste No More tears
TTITLE9=It's Easy Child
TTITLE10=I Know
TTITLE11=Why Don't You Come On Home
EXTD=
EXTT0=
EXTT1=
EXTT2=
EXTT3=
EXTT4=
EXTT5=
EXTT6=
EXTT7=
EXTT8=
EXTT9=
EXTT10=
EXTT11=
PLAYORDER=
